<svg version="1.2" xmlns="http://www.w3.org/2000/svg" viewBox="0 0 1006 999" width="1006" height="999">
	<title>amex-svg</title>
	<style>
		.s0 { fill: #016fd0 } 
		.s1 { fill: #ffffff } 
	</style>
	<path id="Layer" class="s0" d="m5 1h997.5v538.5l-49.4 77.1 49.4 68.7v313.2h-997.5v-507.6l30.9-35.5-30.9-33.9z"/>
	<path id="Layer" class="s1" d="m198.6 696.1v-156.6h165.9l17.8 23.2 18.3-23.2h601.9v145.8c0 0-15.7 10.6-33.9 10.8h-333.3l-20.1-24.7v24.7h-65.7v-42.1c0 0-9 5.8-28.4 5.8h-22.4v36.3h-99.5l-17.7-23.7-18.1 23.7zm-193.6-274.6l37.4-87.2h64.6l21.3 48.8v-48.8h80.3l12.7 35.3 12.2-35.3h360.9v17.7c0 0 19-17.7 50.1-17.7l117.1 0.4 20.9 48.2v-48.6h67.2l18.6 27.7v-27.7h67.9v156.6h-67.9l-17.8-27.8v27.8h-98.8l-10-24.7h-26.5l-9.8 24.7h-67c-26.9 0-44-17.4-44-17.4v17.4h-101.1l-20-24.7v24.7h-375.8l-10-24.7h-26.5l-9.8 24.7h-46.2z"/>
	<path id="Layer" fill-rule="evenodd" class="s0" d="m93.9 353.6l50.4 117.2h-33.6l-9.3-23.4h-54.1l-9.3 23.4h-32.8l50.4-117.2zm-36.1 68.3h33l-16.4-41zm89.9 48.9v-117.3l46.7 0.2 27.1 75.6 26.5-75.8h46.3v117.3h-29.3v-86.4l-31.1 86.4h-25.7l-31.2-86.4v86.4zm166.7 0v-117.3h95.6v26.3h-66v20h64.5v24.7h-64.5v20.8h66v25.5zm177.9-117.2c21.6 0 41 13.3 41 38 0 21.1-16.3 34.7-32.2 36l38.6 43.2h-35.8l-35.2-41.6h-12.3v41.6h-29.3v-117.2zm-35.9 50.9h33.9c5.9 0 13.5-4.6 13.5-12.4 0-6-5.9-12.3-13.9-12.3h-33.5zm118.8 66.3h-30v-117.3h30zm70.9 0h-6.4c-31.3 0-50.3-24.6-50.3-58.1 0-34.4 18.8-59.1 58.3-59.1h32.4v27.8h-33.6c-16 0-27.4 12.5-27.4 31.6 0 22.7 13 32.2 31.7 32.2h7.7zm102-117.2l50.4 117.3h-33.6l-9.2-23.5h-54.1l-9.3 23.5h-32.9l50.5-117.3zm-36.1 68.3h33l-16.5-41zm89.9 48.9v-117.3h37.3l47.6 73.7v-73.7h29.3v117.3h-36.1l-48.8-75.6v75.6zm-583.2 205.2v-117.3h95.7v26.3h-66.1v20h64.5v24.7h-64.5v20.8h66.1v25.5zm468.7 0v-117.3h95.7v26.3h-66.1v20h64.2v24.7h-64.2v20.8h66.1v25.5zm-369.4 0l46.6-57.9-47.7-59.4h36.9l28.4 36.7 28.5-36.7h35.5l-47 58.7 46.6 58.6h-36.9l-27.6-36.1-26.9 36.1zm196.1-117.2c26.5 0 42.1 17.1 42.1 39.4 0 26.9-19.8 40.8-45.9 40.8h-30.9v37h-30.1v-117.2zm-34.7 53.5h32.4c8.6 0 14.6-5.7 14.6-13.5 0-8.3-6-13.5-14.5-13.5h-32.5zm154.8-53.6c21.6 0 40.9 13.4 40.9 38.1 0 21.1-16.3 34.7-32.1 36l38.6 43.2h-35.9l-35.1-41.7h-12.4v41.7h-29.3v-117.3zm-35.9 51h34c5.8 0 13.4-4.6 13.4-12.4 0-6-5.8-12.3-13.9-12.3h-33.5zm198.4 66.3v-25.4h58.7c8.7 0 12.4-4.7 12.4-9.9 0-4.9-3.7-9.9-12.4-9.9h-26.5c-23.1 0-35.9-14-35.9-35.1 0-18.8 11.8-36.9 46-36.9h57.1l-12.3 26.3h-49.4c-9.5 0-12.4 5-12.4 9.7 0 4.9 3.6 10.2 10.8 10.2h27.8c25.7 0 36.8 14.6 36.8 33.7 0 20.5-12.4 37.3-38.2 37.3zm107.6 0v-25.4h58.7c8.7 0 12.4-4.7 12.4-9.9 0-4.9-3.7-9.9-12.4-9.9h-26.5c-23.1 0-35.9-14-35.9-35.1 0-18.8 11.7-36.9 46-36.9h57.1l-12.4 26.3h-49.3c-9.5 0-12.4 5-12.4 9.7 0 4.9 3.6 10.2 10.8 10.2h27.8c25.7 0 36.8 14.6 36.8 33.7 0 20.5-12.4 37.3-38.2 37.3z"/>
</svg>